<?xml version="1.0" standalone="no"?>
<!DOCTYPE svg PUBLIC "-//W3C//DTD SVG 20010904//EN"
 "http://www.w3.org/TR/2001/REC-SVG-20010904/DTD/svg10.dtd">
<svg version="1.0" xmlns="http://www.w3.org/2000/svg"
 width="500.000000pt" height="500.000000pt" viewBox="0 0 500.000000 500.000000"
 preserveAspectRatio="xMidYMid meet">

<g transform="translate(0.000000,500.000000) scale(0.100000,-0.100000)"
fill="#000000" stroke="none">
<path d="M3184 3311 c-82 -13 -184 -50 -249 -89 -147 -88 -289 -271 -320 -409
l-7 -33 181 0 180 0 7 38 c24 143 61 240 120 318 66 86 196 135 303 113 75
-15 146 -55 186 -104 62 -77 106 -188 120 -307 l7 -58 179 0 c149 0 179 2 179
14 0 37 -56 158 -106 229 -94 133 -236 231 -394 271 -74 19 -308 29 -386 17z"/>
<path d="M875 3290 c-12 -19 7 -30 51 -30 50 0 89 -16 119 -50 18 -20 20 -39
23 -226 l3 -204 165 0 164 0 0 220 0 220 63 0 c132 0 224 -45 273 -133 26 -47
29 -61 29 -147 0 -72 -4 -103 -18 -127 l-18 -33 171 0 170 0 21 41 c65 129 10
303 -125 396 -61 42 -125 61 -251 73 -135 13 -832 13 -840 0z"/>
<path d="M1600 2506 c0 -104 3 -126 15 -126 11 0 15 18 17 81 l3 82 63 -88 62
-89 0 127 c0 145 -18 176 -22 40 l-3 -88 -49 70 c-96 134 -86 135 -86 -9z"/>
<path d="M4122 2505 c-32 -80 -46 -125 -38 -125 7 0 19 15 27 33 13 30 17 32
64 32 47 0 51 -2 64 -32 8 -18 20 -33 27 -33 8 0 -5 44 -37 122 -27 66 -50
123 -52 125 -2 1 -27 -53 -55 -122z m77 12 l20 -47 -44 0 -44 0 21 50 c11 28
22 49 24 48 1 -2 12 -25 23 -51z"/>
<path d="M750 2499 l0 -121 61 4 c45 3 65 10 75 23 20 27 17 72 -5 92 -17 14
-18 19 -6 37 31 47 -12 86 -91 86 l-34 0 0 -121z m91 91 c23 -13 25 -55 3 -64
-9 -3 -29 -6 -45 -6 -26 0 -29 3 -29 33 0 19 3 37 7 40 10 10 42 8 64 -3z m17
-106 c45 -31 11 -84 -55 -84 -33 0 -33 0 -33 50 0 50 0 50 33 50 18 0 43 -7
55 -16z"/>
<path d="M1030 2500 c0 -100 3 -120 15 -120 11 0 15 12 15 50 0 28 4 50 10 50
5 0 26 -22 47 -50 20 -27 43 -50 50 -50 19 0 16 8 -17 50 -34 42 -36 50 -17
50 23 0 47 35 47 68 0 44 -39 72 -101 72 l-49 0 0 -120z m111 81 c20 -16 22
-23 14 -47 -9 -25 -16 -29 -53 -32 l-42 -3 0 50 c0 50 1 51 29 51 16 0 39 -9
52 -19z"/>
<path d="M1310 2500 l0 -120 75 0 c43 0 75 4 75 10 0 6 -27 10 -60 10 l-60 0
0 45 0 45 55 0 c30 0 55 5 55 10 0 6 -25 10 -55 10 l-55 0 0 45 0 45 61 0 c37
0 58 4 54 10 -3 6 -37 10 -76 10 l-69 0 0 -120z"/>
<path d="M1958 2604 c-75 -40 -78 -160 -6 -204 85 -51 188 4 188 100 0 90
-102 148 -182 104z m131 -39 c39 -38 36 -98 -7 -136 -45 -40 -84 -39 -128 5
-47 47 -46 86 1 133 31 31 40 35 72 30 20 -4 48 -18 62 -32z"/>
<path d="M2530 2613 c-29 -11 -59 -46 -70 -79 -25 -74 35 -154 115 -154 110 0
161 134 80 210 -24 22 -94 36 -125 23z m90 -28 c35 -18 50 -43 50 -85 0 -42
-15 -67 -52 -86 -64 -33 -138 11 -138 83 0 44 14 69 48 87 35 19 56 20 92 1z"/>
<path d="M2866 2589 c-46 -42 -56 -90 -31 -143 37 -79 154 -90 200 -19 21 31
1 30 -37 -2 -40 -34 -82 -33 -119 4 -48 49 -38 125 21 156 39 20 51 19 94 -10
51 -35 67 -31 30 6 -23 23 -44 33 -77 36 -40 5 -48 2 -81 -28z"/>
<path d="M3213 2518 c-58 -143 -57 -138 -44 -138 7 0 19 16 27 35 14 33 17 35
64 35 47 0 50 -2 64 -35 15 -35 44 -51 32 -17 -26 72 -91 222 -96 222 -3 0
-25 -46 -47 -102z m81 -26 c7 -20 4 -22 -33 -22 -23 0 -41 2 -41 4 0 2 9 26
21 53 l21 48 13 -31 c7 -17 16 -40 19 -52z"/>
<path d="M3490 2500 c0 -139 18 -165 22 -33 l3 86 64 -91 c35 -51 65 -92 67
-92 2 0 4 56 4 125 0 104 -2 125 -15 125 -12 0 -15 -16 -15 -87 l0 -87 -61 87
c-33 48 -62 87 -65 87 -2 0 -4 -54 -4 -120z"/>
<path d="M3790 2501 c0 -101 2 -121 15 -121 12 0 15 13 15 55 l0 55 50 0 50 0
0 -55 c0 -42 3 -55 15 -55 13 0 15 20 15 120 0 100 -2 120 -15 120 -12 0 -15
-13 -15 -55 l0 -55 -49 0 -50 0 -3 52 c-2 30 -8 53 -15 56 -10 3 -13 -25 -13
-117z"/>
<path d="M1069 2101 c-3 -102 -7 -122 -24 -141 -29 -32 -53 -42 -115 -49 -40
-4 -55 -10 -55 -21 0 -13 55 -15 435 -15 416 1 439 2 524 23 49 12 115 36 146
53 101 54 180 147 195 232 l7 37 -181 0 -181 0 -6 -27 c-32 -152 -124 -232
-276 -241 -75 -4 -78 -4 -108 26 -30 30 -30 32 -30 136 l0 106 -164 0 -164 0
-3 -119z"/>
<path d="M2676 2208 c149 -256 396 -382 714 -364 207 11 351 69 474 190 65 64
136 157 136 178 0 4 -72 8 -159 8 l-159 0 -17 -50 c-21 -64 -85 -160 -128
-193 -58 -44 -106 -59 -192 -59 -62 -1 -92 4 -133 22 -72 31 -141 109 -180
202 l-31 73 -166 3 c-133 2 -165 0 -159 -10z"/>
</g>
</svg>
